<svg width="17" height="18" viewBox="0 0 17 18" fill="none" xmlns="http://www.w3.org/2000/svg">
<path fill-rule="evenodd" clip-rule="evenodd" d="M5.23859 16.9167H12.1951C14.7504 16.9167 16.7107 15.9937 16.1539 12.279L15.5056 7.24466C15.1623 5.39111 13.98 4.68173 12.9426 4.68173H4.46056C3.40793 4.68173 2.29427 5.44451 1.89763 7.24466L1.24927 12.279C0.776346 15.5742 2.68329 16.9167 5.23859 16.9167Z" stroke="#D8D7E1" stroke-width="1.5" stroke-linecap="round" stroke-linejoin="round"/>
<path d="M5.12416 4.49865C5.12416 2.51026 6.73607 0.898348 8.72447 0.898348V0.898348C9.68197 0.894291 10.6016 1.27182 11.2801 1.94744C11.9586 2.62307 12.34 3.54114 12.34 4.49865V4.49865" stroke="#D8D7E1" stroke-width="1.5" stroke-linecap="round" stroke-linejoin="round"/>
<path d="M6.25311 8.25151H6.29125" stroke="#D8D7E1" stroke-width="1.5" stroke-linecap="round" stroke-linejoin="round"/>
<path d="M11.112 8.25151H11.1501" stroke="#D8D7E1" stroke-width="1.5" stroke-linecap="round" stroke-linejoin="round"/>
</svg>
