<svg width="18" height="20" viewBox="0 0 18 20" fill="none" xmlns="http://www.w3.org/2000/svg">
<path d="M6.63099 17.3095V14.7539C6.63098 14.1039 7.16091 13.5757 7.81749 13.5713H10.2226C10.8823 13.5713 11.4171 14.1008 11.4171 14.7539V14.7539V17.3174C11.4169 17.8693 11.8619 18.3204 12.4192 18.3333H14.0226C15.6209 18.3333 16.9166 17.0506 16.9166 15.4682V15.4682V8.19819C16.9081 7.57568 16.6129 6.99111 16.115 6.61085L10.6314 2.23774C9.67076 1.4763 8.30515 1.4763 7.34449 2.23774L1.885 6.61879C1.3852 6.99751 1.08947 7.58305 1.08331 8.20612V15.4682C1.08331 17.0506 2.37904 18.3333 3.97741 18.3333H5.58078C6.15194 18.3333 6.61496 17.8749 6.61496 17.3095V17.3095" stroke="#D8D7E1" stroke-width="1.5" stroke-linecap="round" stroke-linejoin="round"/>
</svg>
