<?xml version="1.0" encoding="iso-8859-1"?>
<!-- Generator: Adobe Illustrator 19.0.0, SVG Export Plug-In . SVG Version: 6.00 Build 0)  -->
<svg version="1.1" id="Layer_1" xmlns="http://www.w3.org/2000/svg" xmlns:xlink="http://www.w3.org/1999/xlink" x="0px" y="0px"
	 viewBox="0 0 512 512" style="enable-background:new 0 0 512 512;" xml:space="preserve">
<g transform="translate(1 1)">
	<path style="fill:#E2E3E5;" d="M511,255c0,131.144-106.891,238.035-238.035,238.035S34.93,386.144,34.93,255
		S141.821,16.965,272.965,16.965S511,123.856,511,255"/>
	<path style="fill:#CCCCCC;" d="M484.053,255c0,131.144-106.891,238.035-238.035,238.035S7.982,386.144,7.982,255
		S114.874,16.965,246.018,16.965S484.053,123.856,484.053,255"/>
	<path style="fill:#E2E3E5;" d="M457.105,255c0,131.144-100.604,238.035-224.561,238.035S7.982,386.144,7.982,255
		S108.586,16.965,232.544,16.965S457.105,123.856,457.105,255"/>
	<path style="fill:#FFFFFF;" d="M246.018,493.035c2.695,0,4.491,0,7.186,0C131.94,489.442,34.93,384.347,34.93,255
		S131.94,20.558,253.204,16.965c-2.695,0-4.491,0-7.186,0C114.874,16.965,7.982,123.856,7.982,255S114.874,493.035,246.018,493.035"
		/>
	<path style="fill:#B6B6B6;" d="M175.056,390.635l-70.961,38.625c-4.491,2.695-8.084,5.389-11.677,8.084
		c41.319,35.032,95.214,55.691,153.6,55.691s111.382-20.66,152.702-54.793c-3.593-3.593-8.084-6.288-12.575-8.084l-76.351-37.726
		c-9.881-4.491-16.168-15.27-16.168-26.049V336.74c1.797-2.695,4.491-5.389,7.186-8.982c10.779-14.372,17.965-30.54,23.354-47.607
		c9.881-2.695,17.067-11.677,17.067-22.456v-31.439c0-7.186-2.695-13.474-8.084-17.965v-47.607c0,0,9.881-71.86-88.028-71.86
		c-97.011,0-88.028,71.86-88.028,71.86v45.811c-4.491,4.491-8.084,10.779-8.084,17.965v31.439c0,8.084,4.491,16.168,10.779,19.761
		c8.084,35.032,28.744,59.284,28.744,59.284v28.744C190.326,375.365,184.039,385.246,175.056,390.635"/>
	<path style="fill:#CCCCCC;" d="M381.653,429.26l-99.705-37.726c-9.881-4.491-16.168-15.27-16.168-26.049v-29.642
		c1.797-2.695,4.491-5.389,7.186-8.982c10.779-14.372,17.965-30.54,23.354-47.607c9.881-2.695,17.067-11.677,17.067-22.456v-33.235
		c0-7.186-2.695-13.474-8.084-17.965v-45.811c0,0,9.881-71.86-88.028-71.86c-5.389,0-10.779,0-16.168,0.898
		c0,4.491-1.797,8.982-6.288,10.779c-10.779,4.491-22.456,9.881-33.235,17.067c3.593,0.898,7.186,3.593,8.084,8.982
		c1.796,33.235-9.881,71.86-19.761,105.993c0,13.474,0.898,26.947,0.898,39.523c0.898,2.695,1.796,6.288,2.695,8.982
		c1.797,0.898,3.593,2.695,4.491,4.491c4.491,9.881,8.982,19.761,12.575,29.642c4.491-1.797,11.677,0.898,13.474,6.288
		c4.491,15.27,4.491,15.27,6.288,30.54c0.898,3.593-0.898,6.288-3.593,8.084c-5.389,17.067-12.575,33.235-25.151,47.607
		c-4.491,5.389-14.372,2.695-16.168-4.491c-0.898-1.796-0.898-3.593-0.898-5.389c-6.288,3.593-13.474,7.186-21.558,11.677
		c-4.491,2.695-35.93,17.067-36.828,20.66c-4.491,20.66,66.47,45.811,102.4,60.182c9.881,0.898,19.761,1.796,29.642,1.796
		c58.386,0,134.737-20.66,176.056-54.793C390.635,433.751,386.144,431.056,381.653,429.26"/>
	<g>
		<path style="fill:#B6B6B6;" d="M246.018,502.018C109.484,502.018-1,391.533-1,255S109.484,7.982,246.018,7.982
			S493.035,118.467,493.035,255S382.551,502.018,246.018,502.018z M246.018,25.947c-126.653,0-229.053,102.4-229.053,229.053
			s102.4,229.053,229.053,229.053S475.07,381.653,475.07,255S372.67,25.947,246.018,25.947z"/>
		<path style="fill:#B6B6B6;" d="M246.018,502.018c-58.386,0-114.975-20.66-158.989-58.386c-1.796-1.797-3.593-4.491-3.593-7.186
			s0.898-5.389,2.695-7.186c4.491-3.593,8.982-7.186,13.474-8.982l70.961-38.625l0,0c6.288-3.593,10.779-9.881,10.779-17.965
			v-26.049c-5.389-7.186-20.66-28.744-27.846-57.488c-7.186-6.288-11.677-15.27-11.677-25.151v-31.439
			c0-8.084,2.695-15.27,8.084-21.558v-41.319c-0.898-4.491-1.796-30.54,17.067-52.996c16.168-17.965,43.116-27.846,79.046-27.846
			s62.877,9.881,79.944,28.744c18.863,21.558,17.067,47.607,17.067,52.996V203.8c5.389,6.288,8.084,13.474,8.084,21.558v31.439
			c0,12.575-7.186,24.253-18.863,29.642c-5.389,17.067-13.474,32.337-23.354,45.811c-1.797,2.695-3.593,5.389-5.389,7.186v26.947
			c0,8.084,4.491,14.372,10.779,17.965l76.351,37.726c4.491,2.695,9.881,5.389,14.372,9.881c1.796,1.796,3.593,4.491,3.593,7.186
			s-0.898,5.389-3.593,7.186C360.095,481.358,303.505,502.018,246.018,502.018z M107.688,437.344
			c39.523,30.54,88.028,46.709,138.33,46.709c49.404,0,97.909-16.168,137.432-45.811c-0.898,0-0.898-0.898-1.797-0.898
			l-76.351-37.726c-12.575-6.288-20.66-19.761-20.66-34.133v-29.642c0-1.796,0.898-4.491,1.797-6.288
			c1.797-2.695,4.491-5.389,6.288-8.084c9.881-13.474,17.067-28.744,22.456-44.912c0.898-2.695,2.695-5.389,6.288-5.389
			c6.288-1.796,10.779-8.084,10.779-14.372v-31.439c0-4.491-1.797-8.084-5.389-10.779c-1.796-1.796-2.695-4.491-2.695-6.288v-47.607
			v-0.898c0,0,2.695-22.456-12.575-39.523c-12.575-15.27-35.032-22.456-65.572-22.456s-52.996,7.186-66.47,22.456
			c-15.27,17.067-12.575,38.625-12.575,39.523v0.898v45.811c0,2.695-0.898,5.389-2.695,6.288c-3.593,2.695-5.389,7.186-5.389,10.779
			V255c0,5.389,2.695,9.881,7.186,12.575c1.797,0.898,3.593,3.593,3.593,5.389c7.186,32.337,26.947,55.691,26.947,55.691
			c1.796,1.796,1.796,3.593,1.796,5.389v28.744c0,13.474-7.186,26.947-19.761,33.235l-70.961,38.625
			C107.688,437.344,107.688,437.344,107.688,437.344z"/>
	</g>
</g>
<g>
</g>
<g>
</g>
<g>
</g>
<g>
</g>
<g>
</g>
<g>
</g>
<g>
</g>
<g>
</g>
<g>
</g>
<g>
</g>
<g>
</g>
<g>
</g>
<g>
</g>
<g>
</g>
<g>
</g>
</svg>
